<svg xmlns="http://www.w3.org/2000/svg" xmlns:xlink="http://www.w3.org/1999/xlink" width="500" zoomAndPan="magnify" viewBox="0 0 375 374.999991" height="500" preserveAspectRatio="xMidYMid meet" version="1.2"><defs><clipPath id="ff0249eed5"><path d="M 226 155 L 324.566406 155 L 324.566406 269 L 226 269 Z M 226 155 "/></clipPath></defs><g id="92ee9d6513"><path style=" stroke:none;fill-rule:nonzero;fill:#e7e8ff;fill-opacity:1;" d="M 120.996094 288.089844 L 266.273438 288.089844 C 293.8125 288.089844 309.765625 256.9375 293.644531 234.644531 C 283.90625 221.179688 285.441406 202.636719 297.261719 190.953125 L 302.492188 185.785156 C 324.492188 164.042969 316.460938 126.847656 287.445312 116.085938 L 184.992188 78.082031 C 168.796875 72.074219 151.277344 82.953125 149.511719 100.113281 C 148.066406 114.207031 135.722656 124.640625 121.5625 123.746094 L 114.582031 123.304688 C 95.175781 122.074219 78.761719 137.457031 78.761719 156.871094 L 78.761719 170.539062 C 78.761719 181.238281 74.980469 191.710938 68.207031 200.003906 C 51.410156 220.570312 54.308594 251.148438 74.972656 267.84375 L 83.738281 274.925781 C 94.28125 283.441406 107.433594 288.089844 120.996094 288.089844 Z M 120.996094 288.089844 "/><path style=" stroke:none;fill-rule:nonzero;fill:#032068;fill-opacity:1;" d="M 264.0625 256.542969 C 255.359375 255.96875 247.621094 277.574219 245.203125 288.089844 L 251.003906 288.089844 C 258.742188 278.050781 272.769531 257.117188 264.0625 256.542969 Z M 264.0625 256.542969 "/><path style=" stroke:none;fill-rule:nonzero;fill:#ffffff;fill-opacity:1;" d="M 261.886719 224.640625 C 247.089844 223.207031 240.246094 265.863281 238.671875 287.371094 L 249.191406 287.371094 C 259.589844 267.058594 276.6875 226.074219 261.886719 224.640625 Z M 261.886719 224.640625 "/><path style=" stroke:none;fill-rule:evenodd;fill:#032068;fill-opacity:1;" d="M 239.320312 286.777344 L 248.824219 286.777344 C 253.992188 276.636719 260.742188 261.539062 264.410156 248.765625 C 266.269531 242.296875 267.316406 236.488281 267.007812 232.234375 C 266.855469 230.109375 266.367188 228.433594 265.527344 227.257812 C 264.703125 226.109375 263.515625 225.394531 261.828125 225.234375 C 258.472656 224.90625 255.449219 227.0625 252.742188 231.140625 C 250.042969 235.195312 247.773438 241 245.898438 247.566406 C 242.230469 260.429688 240.140625 276.058594 239.320312 286.777344 Z M 251.734375 230.488281 C 254.519531 226.296875 257.902344 223.65625 261.945312 224.050781 C 263.960938 224.242188 265.472656 225.125 266.507812 226.570312 C 267.527344 227.992188 268.046875 229.914062 268.210938 232.148438 C 268.535156 236.617188 267.433594 242.59375 265.566406 249.089844 C 261.828125 262.105469 254.9375 277.46875 249.730469 287.640625 L 249.5625 287.96875 L 238.027344 287.96875 L 238.074219 287.328125 C 238.859375 276.554688 240.96875 260.46875 244.742188 247.242188 C 246.625 240.632812 248.9375 234.695312 251.734375 230.488281 Z M 251.734375 230.488281 "/><path style=" stroke:none;fill-rule:evenodd;fill:#032068;fill-opacity:1;" d="M 260.289062 233.765625 L 253.40625 257.492188 L 259.445312 254.574219 L 259.976562 255.644531 L 252.960938 259.03125 L 244.691406 287.535156 L 243.535156 287.207031 L 247.65625 273.003906 L 244.992188 264.972656 L 246.136719 264.605469 L 248.246094 270.964844 L 255.226562 246.90625 L 251.902344 239.214844 L 253.011719 238.746094 L 255.753906 245.09375 L 259.132812 233.4375 Z M 260.289062 233.765625 "/><path style=" stroke:none;fill-rule:nonzero;fill:#ffffff;fill-opacity:1;" d="M 144.707031 122.492188 C 144.707031 133.382812 135.878906 142.210938 124.988281 142.210938 C 121.226562 142.210938 117.710938 141.15625 114.722656 139.328125 L 108.851562 141.410156 C 107.871094 141.757812 106.890625 140.894531 107.117188 139.875 L 108.546875 133.382812 C 106.476562 130.261719 105.269531 126.519531 105.269531 122.492188 C 105.269531 111.601562 114.097656 102.773438 124.988281 102.773438 C 135.878906 102.773438 144.707031 111.601562 144.707031 122.492188 Z M 144.707031 122.492188 "/><path style=" stroke:none;fill-rule:evenodd;fill:#032068;fill-opacity:1;" d="M 124.988281 103.214844 C 135.632812 103.214844 144.265625 111.847656 144.265625 122.492188 C 144.265625 133.136719 135.632812 141.769531 124.988281 141.769531 C 121.3125 141.769531 117.875 140.738281 114.953125 138.953125 L 114.773438 138.84375 L 108.703125 140.996094 C 108.050781 141.226562 107.398438 140.648438 107.546875 139.972656 L 109.019531 133.296875 L 108.917969 133.140625 C 106.890625 130.089844 105.710938 126.429688 105.710938 122.492188 C 105.710938 111.847656 114.34375 103.214844 124.988281 103.214844 Z M 145.148438 122.492188 C 145.148438 111.359375 136.121094 102.332031 124.988281 102.332031 C 113.855469 102.332031 104.828125 111.359375 104.828125 122.492188 C 104.828125 126.539062 106.023438 130.3125 108.078125 133.46875 L 106.683594 139.78125 C 106.386719 141.136719 107.691406 142.292969 109 141.828125 L 114.671875 139.816406 C 117.691406 141.617188 121.21875 142.652344 124.988281 142.652344 C 136.121094 142.652344 145.148438 133.625 145.148438 122.492188 Z M 145.148438 122.492188 "/><path style=" stroke:none;fill-rule:nonzero;fill:#b29cd6;fill-opacity:1;" d="M 124.894531 121.96875 C 130.402344 121.96875 134.945312 126.164062 135.589844 131.582031 C 135.675781 132.308594 135.074219 132.902344 134.34375 132.902344 L 115.445312 132.902344 C 114.710938 132.902344 114.109375 132.308594 114.195312 131.582031 C 114.839844 126.164062 119.382812 121.96875 124.894531 121.96875 Z M 124.894531 121.96875 "/><path style=" stroke:none;fill-rule:nonzero;fill:#b29cd6;fill-opacity:1;" d="M 119.816406 115.566406 C 119.816406 118.410156 122.117188 120.714844 124.960938 120.714844 C 127.804688 120.714844 130.109375 118.410156 130.109375 115.566406 C 130.109375 112.726562 127.804688 110.421875 124.960938 110.421875 C 122.117188 110.421875 119.816406 112.726562 119.816406 115.566406 Z M 119.816406 115.566406 "/><path style=" stroke:none;fill-rule:nonzero;fill:#ffffff;fill-opacity:1;" d="M 209.40625 109.832031 L 209.261719 105.65625 C 209.234375 104.914062 210.179688 104.574219 210.632812 105.164062 L 213.121094 108.398438 C 213.269531 108.59375 213.507812 108.703125 213.753906 108.695312 L 218.21875 108.539062 C 218.9375 108.515625 219.289062 109.40625 218.75 109.878906 L 215.359375 112.859375 C 215.191406 113.003906 215.097656 113.214844 215.097656 113.433594 L 215.082031 118.390625 C 215.082031 119.128906 214.140625 119.4375 213.703125 118.847656 L 210.933594 115.113281 C 210.796875 114.929688 210.589844 114.816406 210.363281 114.804688 L 205.3125 114.503906 C 204.570312 114.460938 204.320312 113.492188 204.949219 113.09375 L 209.046875 110.507812 C 209.277344 110.363281 209.414062 110.105469 209.40625 109.832031 Z M 209.40625 109.832031 "/><path style=" stroke:none;fill-rule:nonzero;fill:#ffffff;fill-opacity:1;" d="M 256.738281 130.320312 L 257.273438 129.082031 C 257.570312 128.398438 258.566406 128.496094 258.722656 129.226562 L 259 130.507812 C 259.050781 130.746094 259.21875 130.949219 259.445312 131.046875 L 260.945312 131.699219 C 261.605469 131.984375 261.542969 132.941406 260.847656 133.136719 L 259.226562 133.597656 C 259.015625 133.65625 258.84375 133.804688 258.746094 134.003906 L 257.933594 135.703125 C 257.613281 136.367188 256.632812 136.242188 256.492188 135.519531 L 256.164062 133.855469 C 256.121094 133.632812 255.980469 133.441406 255.78125 133.332031 L 254.109375 132.414062 C 253.457031 132.054688 253.648438 131.070312 254.390625 130.984375 L 256.125 130.773438 C 256.394531 130.742188 256.628906 130.570312 256.738281 130.320312 Z M 256.738281 130.320312 "/><path style=" stroke:none;fill-rule:evenodd;fill:#032068;fill-opacity:1;" d="M 183.308594 126.8125 C 160.730469 126.8125 142.429688 145.121094 142.429688 167.703125 L 142.429688 199.179688 C 142.429688 200.582031 143.566406 201.71875 144.96875 201.71875 L 152.117188 201.71875 C 153.519531 201.71875 154.65625 200.582031 154.65625 199.179688 L 154.65625 166.941406 C 154.65625 151.109375 167.484375 138.277344 183.308594 138.277344 C 199.132812 138.277344 211.960938 151.109375 211.960938 166.941406 L 211.960938 175.484375 C 211.960938 176.886719 213.097656 178.023438 214.496094 178.023438 L 221.648438 178.023438 C 223.050781 178.023438 224.1875 176.886719 224.1875 175.484375 L 224.1875 167.703125 C 224.1875 145.121094 205.882812 126.8125 183.308594 126.8125 Z M 183.308594 126.8125 "/><path style=" stroke:none;fill-rule:nonzero;fill:#ffffff;fill-opacity:1;" d="M 127.148438 195.082031 C 127.148438 193.683594 128.285156 192.546875 129.683594 192.546875 L 236.929688 192.546875 C 238.332031 192.546875 239.46875 193.683594 239.46875 195.082031 L 239.46875 285.550781 C 239.46875 286.953125 238.332031 288.089844 236.929688 288.089844 L 129.683594 288.089844 C 128.285156 288.089844 127.148438 286.953125 127.148438 285.550781 Z M 127.148438 195.082031 "/><path style=" stroke:none;fill-rule:evenodd;fill:#032068;fill-opacity:1;" d="M 126.304688 195.082031 C 126.304688 193.214844 127.816406 191.699219 129.683594 191.699219 L 236.929688 191.699219 C 238.796875 191.699219 240.3125 193.214844 240.3125 195.082031 L 240.3125 285.550781 C 240.3125 287.421875 238.796875 288.933594 236.929688 288.933594 L 129.683594 288.933594 C 127.816406 288.933594 126.304688 287.421875 126.304688 285.550781 Z M 129.683594 193.390625 C 128.75 193.390625 127.992188 194.148438 127.992188 195.082031 L 127.992188 285.550781 C 127.992188 286.484375 128.75 287.242188 129.683594 287.242188 L 236.929688 287.242188 C 237.863281 287.242188 238.621094 286.484375 238.621094 285.550781 L 238.621094 195.082031 C 238.621094 194.148438 237.863281 193.390625 236.929688 193.390625 Z M 129.683594 193.390625 "/><path style=" stroke:none;fill-rule:evenodd;fill:#b29cd6;fill-opacity:1;" d="M 189.769531 243.011719 C 192.117188 241.117188 193.621094 238.21875 193.621094 234.96875 C 193.621094 229.269531 189.003906 224.648438 183.308594 224.648438 C 177.609375 224.648438 172.992188 229.269531 172.992188 234.96875 C 172.992188 238.507812 174.777344 241.632812 177.496094 243.492188 L 175.191406 253.164062 C 174.851562 254.601562 175.941406 255.988281 177.421875 255.988281 L 189.957031 255.988281 C 191.4375 255.988281 192.527344 254.601562 192.1875 253.164062 Z M 189.769531 243.011719 "/><path style=" stroke:none;fill-rule:nonzero;fill:#ffffff;fill-opacity:1;" d="M 145.402344 122.851562 C 145.402344 134.324219 136.101562 143.625 124.628906 143.625 C 120.664062 143.625 116.960938 142.515625 113.8125 140.589844 L 107.628906 142.785156 C 106.59375 143.152344 105.5625 142.238281 105.796875 141.167969 L 107.308594 134.328125 C 105.125 131.039062 103.851562 127.09375 103.851562 122.851562 C 103.851562 111.378906 113.152344 102.078125 124.628906 102.078125 C 136.101562 102.078125 145.402344 111.378906 145.402344 122.851562 Z M 145.402344 122.851562 "/><path style=" stroke:none;fill-rule:evenodd;fill:#032068;fill-opacity:1;" d="M 124.628906 102.542969 C 135.84375 102.542969 144.9375 111.636719 144.9375 122.851562 C 144.9375 134.066406 135.84375 143.160156 124.628906 143.160156 C 120.753906 143.160156 117.132812 142.078125 114.054688 140.195312 L 113.863281 140.078125 L 107.472656 142.347656 C 106.785156 142.589844 106.09375 141.980469 106.253906 141.269531 L 107.804688 134.234375 L 107.695312 134.070312 C 105.5625 130.855469 104.320312 127 104.320312 122.851562 C 104.320312 111.636719 113.410156 102.542969 124.628906 102.542969 Z M 145.867188 122.851562 C 145.867188 111.121094 136.359375 101.613281 124.628906 101.613281 C 112.898438 101.613281 103.386719 111.121094 103.386719 122.851562 C 103.386719 127.117188 104.644531 131.089844 106.808594 134.417969 L 105.34375 141.066406 C 105.027344 142.496094 106.40625 143.710938 107.785156 143.222656 L 113.757812 141.105469 C 116.9375 143 120.65625 144.09375 124.628906 144.09375 C 136.359375 144.09375 145.867188 134.582031 145.867188 122.851562 Z M 145.867188 122.851562 "/><path style=" stroke:none;fill-rule:nonzero;fill:#b29cd6;fill-opacity:1;" d="M 124.527344 122.300781 C 130.332031 122.300781 135.121094 126.722656 135.796875 132.429688 C 135.890625 133.195312 135.253906 133.820312 134.484375 133.820312 L 114.574219 133.820312 C 113.800781 133.820312 113.167969 133.195312 113.257812 132.429688 C 113.9375 126.722656 118.722656 122.300781 124.527344 122.300781 Z M 124.527344 122.300781 "/><path style=" stroke:none;fill-rule:nonzero;fill:#b29cd6;fill-opacity:1;" d="M 119.179688 115.554688 C 119.179688 118.550781 121.605469 120.976562 124.601562 120.976562 C 127.59375 120.976562 130.019531 118.550781 130.019531 115.554688 C 130.019531 112.5625 127.59375 110.132812 124.601562 110.132812 C 121.605469 110.132812 119.179688 112.5625 119.179688 115.554688 Z M 119.179688 115.554688 "/><path style=" stroke:none;fill-rule:nonzero;fill:#ffffff;fill-opacity:1;" d="M 234.65625 162.089844 L 318.585938 162.089844 C 318.808594 162.089844 319.019531 162.132812 319.226562 162.21875 C 319.429688 162.304688 319.609375 162.421875 319.765625 162.578125 C 319.921875 162.734375 320.042969 162.917969 320.128906 163.121094 C 320.210938 163.324219 320.253906 163.539062 320.253906 163.757812 L 320.253906 260.890625 C 320.253906 261.113281 320.210938 261.324219 320.128906 261.53125 C 320.042969 261.734375 319.921875 261.914062 319.765625 262.070312 C 319.609375 262.226562 319.429688 262.347656 319.226562 262.433594 C 319.019531 262.515625 318.808594 262.558594 318.585938 262.558594 L 234.65625 262.558594 C 234.433594 262.558594 234.21875 262.515625 234.015625 262.433594 C 233.8125 262.347656 233.632812 262.226562 233.476562 262.070312 C 233.320312 261.914062 233.199219 261.734375 233.113281 261.53125 C 233.027344 261.324219 232.988281 261.113281 232.988281 260.890625 L 232.988281 163.757812 C 232.988281 163.539062 233.027344 163.324219 233.113281 163.121094 C 233.199219 162.917969 233.320312 162.734375 233.476562 162.578125 C 233.632812 162.421875 233.8125 162.304688 234.015625 162.21875 C 234.21875 162.132812 234.433594 162.089844 234.65625 162.089844 Z M 234.65625 162.089844 "/><g clip-rule="nonzero" clip-path="url(#ff0249eed5)"><path style="fill:none;stroke-width:2;stroke-linecap:butt;stroke-linejoin:miter;stroke:#032068;stroke-opacity:1;stroke-miterlimit:4;" d="M 342.015029 239.731093 L 492.999647 239.731093 C 493.400192 239.731093 493.779657 239.808391 494.152094 239.962988 C 494.517504 240.117584 494.840751 240.328398 495.121836 240.609482 C 495.40292 240.890567 495.620761 241.220841 495.775358 241.586251 C 495.922927 241.951661 496.000225 242.338153 496.000225 242.731671 L 496.000225 417.467942 C 496.000225 417.868488 495.922927 418.247952 495.775358 418.620389 C 495.620761 418.985799 495.40292 419.309046 495.121836 419.590131 C 494.840751 419.871216 494.517504 420.089056 494.152094 420.243653 C 493.779657 420.391222 493.400192 420.468521 492.999647 420.468521 L 342.015029 420.468521 C 341.614483 420.468521 341.227992 420.391222 340.862582 420.243653 C 340.497172 420.089056 340.173924 419.871216 339.89284 419.590131 C 339.611755 419.309046 339.393914 418.985799 339.239318 418.620389 C 339.084721 418.247952 339.01445 417.868488 339.01445 417.467942 L 339.01445 242.731671 C 339.01445 242.338153 339.084721 241.951661 339.239318 241.586251 C 339.393914 241.220841 339.611755 240.890567 339.89284 240.609482 C 340.173924 240.328398 340.497172 240.117584 340.862582 239.962988 C 341.227992 239.808391 341.614483 239.731093 342.015029 239.731093 Z M 342.015029 239.731093 " transform="matrix(0.555882,0,0,0.555882,44.536125,28.827555)"/></g><path style="fill:none;stroke-width:2;stroke-linecap:butt;stroke-linejoin:miter;stroke:#e7e8ff;stroke-opacity:1;stroke-miterlimit:4;" d="M 368.394823 284.585175 L 467.933923 284.585175 C 468.334469 284.585175 468.713933 284.662474 469.08637 284.81707 C 469.45178 284.971667 469.775028 285.18248 470.056112 285.463565 C 470.337197 285.744649 470.555038 286.074924 470.709634 286.440334 C 470.857204 286.805744 470.934502 287.192235 470.934502 287.585754 L 470.934502 305.336249 C 470.934502 305.729768 470.857204 306.116259 470.709634 306.481669 C 470.555038 306.847079 470.337197 307.177354 470.056112 307.458438 C 469.775028 307.739523 469.45178 307.950337 469.08637 308.104933 C 468.713933 308.25953 468.334469 308.336828 467.933923 308.336828 L 368.394823 308.336828 C 368.001304 308.336828 367.614813 308.25953 367.249403 308.104933 C 366.876966 307.950337 366.553718 307.739523 366.272634 307.458438 C 365.991549 307.177354 365.773708 306.847079 365.626139 306.481669 C 365.471542 306.116259 365.394244 305.729768 365.394244 305.336249 L 365.394244 287.585754 C 365.394244 287.192235 365.471542 286.805744 365.626139 286.440334 C 365.773708 286.074924 365.991549 285.744649 366.272634 285.463565 C 366.553718 285.18248 366.876966 284.971667 367.249403 284.81707 C 367.614813 284.662474 368.001304 284.585175 368.394823 284.585175 Z M 368.394823 284.585175 " transform="matrix(0.555882,0,0,0.555882,44.536125,28.827555)"/><path style="fill:none;stroke-width:2;stroke-linecap:butt;stroke-linejoin:miter;stroke:#e7e8ff;stroke-opacity:1;stroke-miterlimit:4;" d="M 368.394823 333.402551 L 467.933923 333.402551 C 468.334469 333.402551 468.713933 333.472822 469.08637 333.627419 C 469.45178 333.782016 469.775028 333.999856 470.056112 334.280941 C 470.337197 334.562025 470.555038 334.885273 470.709634 335.250683 C 470.857204 335.616093 470.934502 336.002584 470.934502 336.40313 L 470.934502 354.146598 C 470.934502 354.547144 470.857204 354.926608 470.709634 355.292018 C 470.555038 355.664455 470.337197 355.987703 470.056112 356.268787 C 469.775028 356.549872 469.45178 356.767713 469.08637 356.915282 C 468.713933 357.069879 468.334469 357.147177 467.933923 357.147177 L 368.394823 357.147177 C 368.001304 357.147177 367.614813 357.069879 367.249403 356.915282 C 366.876966 356.767713 366.553718 356.549872 366.272634 356.268787 C 365.991549 355.987703 365.773708 355.664455 365.626139 355.292018 C 365.471542 354.926608 365.394244 354.547144 365.394244 354.146598 L 365.394244 336.40313 C 365.394244 336.002584 365.471542 335.616093 365.626139 335.250683 C 365.773708 334.885273 365.991549 334.562025 366.272634 334.280941 C 366.553718 333.999856 366.876966 333.782016 367.249403 333.627419 C 367.614813 333.472822 368.001304 333.402551 368.394823 333.402551 Z M 368.394823 333.402551 " transform="matrix(0.555882,0,0,0.555882,44.536125,28.827555)"/><path style=" stroke:none;fill-rule:nonzero;fill:#032068;fill-opacity:1;" d="M 263.257812 237.625 L 290.722656 237.625 C 290.941406 237.625 291.15625 237.667969 291.359375 237.753906 C 291.5625 237.835938 291.746094 237.957031 291.902344 238.113281 C 292.058594 238.269531 292.175781 238.449219 292.261719 238.65625 C 292.347656 238.859375 292.390625 239.070312 292.390625 239.292969 L 292.390625 247.691406 C 292.390625 247.914062 292.347656 248.125 292.261719 248.328125 C 292.175781 248.535156 292.058594 248.714844 291.902344 248.871094 C 291.746094 249.027344 291.5625 249.148438 291.359375 249.230469 C 291.15625 249.316406 290.941406 249.359375 290.722656 249.359375 L 263.257812 249.359375 C 263.035156 249.359375 262.824219 249.316406 262.617188 249.230469 C 262.414062 249.148438 262.234375 249.027344 262.078125 248.871094 C 261.921875 248.714844 261.800781 248.535156 261.714844 248.328125 C 261.632812 248.125 261.589844 247.914062 261.589844 247.691406 L 261.589844 239.292969 C 261.589844 239.070312 261.632812 238.859375 261.714844 238.65625 C 261.800781 238.449219 261.921875 238.269531 262.078125 238.113281 C 262.234375 237.957031 262.414062 237.835938 262.617188 237.753906 C 262.824219 237.667969 263.035156 237.625 263.257812 237.625 Z M 263.257812 237.625 "/><path style=" stroke:none;fill-rule:nonzero;fill:#032068;fill-opacity:1;" d="M 267.453125 174.558594 L 286.519531 174.558594 C 286.714844 174.558594 286.902344 174.59375 287.082031 174.667969 C 287.261719 174.746094 287.421875 174.851562 287.558594 174.988281 C 287.695312 175.125 287.800781 175.285156 287.875 175.464844 C 287.949219 175.644531 287.988281 175.832031 287.988281 176.023438 C 287.988281 176.21875 287.949219 176.40625 287.875 176.585938 C 287.800781 176.765625 287.695312 176.925781 287.558594 177.0625 C 287.421875 177.199219 287.261719 177.304688 287.082031 177.378906 C 286.902344 177.453125 286.714844 177.492188 286.519531 177.492188 L 267.453125 177.492188 C 267.257812 177.492188 267.070312 177.453125 266.890625 177.378906 C 266.710938 177.304688 266.554688 177.199219 266.417969 177.0625 C 266.277344 176.925781 266.171875 176.765625 266.097656 176.585938 C 266.023438 176.40625 265.988281 176.21875 265.988281 176.023438 C 265.988281 175.832031 266.023438 175.644531 266.097656 175.464844 C 266.171875 175.285156 266.277344 175.125 266.417969 174.988281 C 266.554688 174.851562 266.710938 174.746094 266.890625 174.667969 C 267.070312 174.59375 267.257812 174.558594 267.453125 174.558594 Z M 267.453125 174.558594 "/><path style=" stroke:none;fill-rule:nonzero;fill:#b29cd6;fill-opacity:1;" d="M 256.453125 221.125 C 256.453125 221.367188 256.40625 221.601562 256.316406 221.828125 C 256.222656 222.050781 256.089844 222.25 255.917969 222.421875 C 255.746094 222.59375 255.546875 222.726562 255.324219 222.820312 C 255.097656 222.910156 254.863281 222.957031 254.621094 222.957031 C 254.378906 222.957031 254.144531 222.910156 253.917969 222.820312 C 253.695312 222.726562 253.496094 222.59375 253.324219 222.421875 C 253.152344 222.25 253.019531 222.050781 252.925781 221.828125 C 252.835938 221.601562 252.789062 221.367188 252.789062 221.125 C 252.789062 220.882812 252.835938 220.648438 252.925781 220.421875 C 253.019531 220.199219 253.152344 220 253.324219 219.828125 C 253.496094 219.65625 253.695312 219.523438 253.917969 219.429688 C 254.144531 219.339844 254.378906 219.292969 254.621094 219.292969 C 254.863281 219.292969 255.097656 219.339844 255.324219 219.429688 C 255.546875 219.523438 255.746094 219.65625 255.917969 219.828125 C 256.089844 220 256.222656 220.199219 256.316406 220.421875 C 256.40625 220.648438 256.453125 220.882812 256.453125 221.125 Z M 256.453125 221.125 "/><path style=" stroke:none;fill-rule:nonzero;fill:#b29cd6;fill-opacity:1;" d="M 265.253906 221.125 C 265.253906 221.367188 265.207031 221.601562 265.117188 221.828125 C 265.023438 222.050781 264.890625 222.25 264.71875 222.421875 C 264.546875 222.59375 264.347656 222.726562 264.125 222.820312 C 263.898438 222.910156 263.664062 222.957031 263.421875 222.957031 C 263.179688 222.957031 262.945312 222.910156 262.71875 222.820312 C 262.496094 222.726562 262.296875 222.59375 262.125 222.421875 C 261.953125 222.25 261.820312 222.050781 261.726562 221.828125 C 261.636719 221.601562 261.589844 221.367188 261.589844 221.125 C 261.589844 220.882812 261.636719 220.648438 261.726562 220.421875 C 261.820312 220.199219 261.953125 220 262.125 219.828125 C 262.296875 219.65625 262.496094 219.523438 262.71875 219.429688 C 262.945312 219.339844 263.179688 219.292969 263.421875 219.292969 C 263.664062 219.292969 263.898438 219.339844 264.125 219.429688 C 264.347656 219.523438 264.546875 219.65625 264.71875 219.828125 C 264.890625 220 265.023438 220.199219 265.117188 220.421875 C 265.207031 220.648438 265.253906 220.882812 265.253906 221.125 Z M 265.253906 221.125 "/><path style=" stroke:none;fill-rule:nonzero;fill:#b29cd6;fill-opacity:1;" d="M 274.050781 221.125 C 274.050781 221.367188 274.007812 221.601562 273.914062 221.828125 C 273.820312 222.050781 273.6875 222.25 273.515625 222.421875 C 273.34375 222.59375 273.144531 222.726562 272.921875 222.820312 C 272.695312 222.910156 272.460938 222.957031 272.21875 222.957031 C 271.976562 222.957031 271.742188 222.910156 271.519531 222.820312 C 271.292969 222.726562 271.09375 222.59375 270.921875 222.421875 C 270.75 222.25 270.617188 222.050781 270.527344 221.828125 C 270.433594 221.601562 270.386719 221.367188 270.386719 221.125 C 270.386719 220.882812 270.433594 220.648438 270.527344 220.421875 C 270.617188 220.199219 270.75 220 270.921875 219.828125 C 271.09375 219.65625 271.292969 219.523438 271.519531 219.429688 C 271.742188 219.339844 271.976562 219.292969 272.21875 219.292969 C 272.460938 219.292969 272.695312 219.339844 272.921875 219.429688 C 273.144531 219.523438 273.34375 219.65625 273.515625 219.828125 C 273.6875 220 273.820312 220.199219 273.914062 220.421875 C 274.007812 220.648438 274.050781 220.882812 274.050781 221.125 Z M 274.050781 221.125 "/><path style=" stroke:none;fill-rule:nonzero;fill:#b29cd6;fill-opacity:1;" d="M 282.851562 221.125 C 282.851562 221.367188 282.804688 221.601562 282.710938 221.828125 C 282.621094 222.050781 282.488281 222.25 282.316406 222.421875 C 282.144531 222.59375 281.945312 222.726562 281.71875 222.820312 C 281.496094 222.910156 281.261719 222.957031 281.019531 222.957031 C 280.777344 222.957031 280.542969 222.910156 280.316406 222.820312 C 280.09375 222.726562 279.894531 222.59375 279.722656 222.421875 C 279.550781 222.25 279.417969 222.050781 279.324219 221.828125 C 279.230469 221.601562 279.1875 221.367188 279.1875 221.125 C 279.1875 220.882812 279.230469 220.648438 279.324219 220.421875 C 279.417969 220.199219 279.550781 220 279.722656 219.828125 C 279.894531 219.65625 280.09375 219.523438 280.316406 219.429688 C 280.542969 219.339844 280.777344 219.292969 281.019531 219.292969 C 281.261719 219.292969 281.496094 219.339844 281.71875 219.429688 C 281.945312 219.523438 282.144531 219.65625 282.316406 219.828125 C 282.488281 220 282.621094 220.199219 282.710938 220.421875 C 282.804688 220.648438 282.851562 220.882812 282.851562 221.125 Z M 282.851562 221.125 "/><path style=" stroke:none;fill-rule:nonzero;fill:#b29cd6;fill-opacity:1;" d="M 291.652344 221.125 C 291.652344 221.367188 291.605469 221.601562 291.511719 221.828125 C 291.421875 222.050781 291.289062 222.25 291.117188 222.421875 C 290.945312 222.59375 290.746094 222.726562 290.519531 222.820312 C 290.296875 222.910156 290.0625 222.957031 289.820312 222.957031 C 289.578125 222.957031 289.34375 222.910156 289.117188 222.820312 C 288.894531 222.726562 288.695312 222.59375 288.523438 222.421875 C 288.351562 222.25 288.21875 222.050781 288.125 221.828125 C 288.03125 221.601562 287.988281 221.367188 287.988281 221.125 C 287.988281 220.882812 288.03125 220.648438 288.125 220.421875 C 288.21875 220.199219 288.351562 220 288.523438 219.828125 C 288.695312 219.65625 288.894531 219.523438 289.117188 219.429688 C 289.34375 219.339844 289.578125 219.292969 289.820312 219.292969 C 290.0625 219.292969 290.296875 219.339844 290.519531 219.429688 C 290.746094 219.523438 290.945312 219.65625 291.117188 219.828125 C 291.289062 220 291.421875 220.199219 291.511719 220.421875 C 291.605469 220.648438 291.652344 220.882812 291.652344 221.125 Z M 291.652344 221.125 "/><path style=" stroke:none;fill-rule:nonzero;fill:#b29cd6;fill-opacity:1;" d="M 256.449219 193.992188 C 256.449219 194.234375 256.402344 194.46875 256.3125 194.695312 C 256.21875 194.917969 256.085938 195.117188 255.914062 195.289062 C 255.742188 195.460938 255.542969 195.59375 255.320312 195.6875 C 255.09375 195.777344 254.859375 195.824219 254.617188 195.824219 C 254.375 195.824219 254.140625 195.777344 253.914062 195.6875 C 253.691406 195.59375 253.492188 195.460938 253.320312 195.289062 C 253.148438 195.117188 253.015625 194.917969 252.921875 194.695312 C 252.828125 194.46875 252.785156 194.234375 252.785156 193.992188 C 252.785156 193.75 252.828125 193.515625 252.921875 193.289062 C 253.015625 193.066406 253.148438 192.867188 253.320312 192.695312 C 253.492188 192.523438 253.691406 192.390625 253.914062 192.296875 C 254.140625 192.207031 254.375 192.160156 254.617188 192.160156 C 254.859375 192.160156 255.09375 192.207031 255.320312 192.296875 C 255.542969 192.390625 255.742188 192.523438 255.914062 192.695312 C 256.085938 192.867188 256.21875 193.066406 256.3125 193.289062 C 256.402344 193.515625 256.449219 193.75 256.449219 193.992188 Z M 256.449219 193.992188 "/><path style=" stroke:none;fill-rule:nonzero;fill:#b29cd6;fill-opacity:1;" d="M 265.25 193.992188 C 265.25 194.234375 265.203125 194.46875 265.113281 194.695312 C 265.019531 194.917969 264.886719 195.117188 264.714844 195.289062 C 264.542969 195.460938 264.34375 195.59375 264.121094 195.6875 C 263.894531 195.777344 263.660156 195.824219 263.417969 195.824219 C 263.175781 195.824219 262.941406 195.777344 262.714844 195.6875 C 262.492188 195.59375 262.292969 195.460938 262.121094 195.289062 C 261.949219 195.117188 261.816406 194.917969 261.722656 194.695312 C 261.628906 194.46875 261.585938 194.234375 261.585938 193.992188 C 261.585938 193.75 261.628906 193.515625 261.722656 193.289062 C 261.816406 193.066406 261.949219 192.867188 262.121094 192.695312 C 262.292969 192.523438 262.492188 192.390625 262.714844 192.296875 C 262.941406 192.207031 263.175781 192.160156 263.417969 192.160156 C 263.660156 192.160156 263.894531 192.207031 264.121094 192.296875 C 264.34375 192.390625 264.542969 192.523438 264.714844 192.695312 C 264.886719 192.867188 265.019531 193.066406 265.113281 193.289062 C 265.203125 193.515625 265.25 193.75 265.25 193.992188 Z M 265.25 193.992188 "/><path style=" stroke:none;fill-rule:nonzero;fill:#b29cd6;fill-opacity:1;" d="M 274.050781 193.992188 C 274.050781 194.234375 274.003906 194.46875 273.910156 194.695312 C 273.816406 194.917969 273.683594 195.117188 273.511719 195.289062 C 273.339844 195.460938 273.144531 195.59375 272.917969 195.6875 C 272.695312 195.777344 272.460938 195.824219 272.21875 195.824219 C 271.972656 195.824219 271.738281 195.777344 271.515625 195.6875 C 271.289062 195.59375 271.09375 195.460938 270.921875 195.289062 C 270.75 195.117188 270.617188 194.917969 270.523438 194.695312 C 270.429688 194.46875 270.382812 194.234375 270.382812 193.992188 C 270.382812 193.75 270.429688 193.515625 270.523438 193.289062 C 270.617188 193.066406 270.75 192.867188 270.921875 192.695312 C 271.09375 192.523438 271.289062 192.390625 271.515625 192.296875 C 271.738281 192.207031 271.972656 192.160156 272.21875 192.160156 C 272.460938 192.160156 272.695312 192.207031 272.917969 192.296875 C 273.144531 192.390625 273.339844 192.523438 273.511719 192.695312 C 273.683594 192.867188 273.816406 193.066406 273.910156 193.289062 C 274.003906 193.515625 274.050781 193.75 274.050781 193.992188 Z M 274.050781 193.992188 "/><path style=" stroke:none;fill-rule:nonzero;fill:#b29cd6;fill-opacity:1;" d="M 282.851562 193.992188 C 282.851562 194.234375 282.804688 194.46875 282.710938 194.695312 C 282.617188 194.917969 282.484375 195.117188 282.3125 195.289062 C 282.140625 195.460938 281.945312 195.59375 281.71875 195.6875 C 281.496094 195.777344 281.261719 195.824219 281.019531 195.824219 C 280.773438 195.824219 280.539062 195.777344 280.316406 195.6875 C 280.089844 195.59375 279.894531 195.460938 279.722656 195.289062 C 279.550781 195.117188 279.417969 194.917969 279.324219 194.695312 C 279.230469 194.46875 279.183594 194.234375 279.183594 193.992188 C 279.183594 193.75 279.230469 193.515625 279.324219 193.289062 C 279.417969 193.066406 279.550781 192.867188 279.722656 192.695312 C 279.894531 192.523438 280.089844 192.390625 280.316406 192.296875 C 280.539062 192.207031 280.773438 192.160156 281.019531 192.160156 C 281.261719 192.160156 281.496094 192.207031 281.71875 192.296875 C 281.945312 192.390625 282.140625 192.523438 282.3125 192.695312 C 282.484375 192.867188 282.617188 193.066406 282.710938 193.289062 C 282.804688 193.515625 282.851562 193.75 282.851562 193.992188 Z M 282.851562 193.992188 "/><path style=" stroke:none;fill-rule:nonzero;fill:#b29cd6;fill-opacity:1;" d="M 291.652344 193.992188 C 291.652344 194.234375 291.605469 194.46875 291.511719 194.695312 C 291.417969 194.917969 291.285156 195.117188 291.113281 195.289062 C 290.941406 195.460938 290.742188 195.59375 290.519531 195.6875 C 290.292969 195.777344 290.0625 195.824219 289.816406 195.824219 C 289.574219 195.824219 289.339844 195.777344 289.117188 195.6875 C 288.890625 195.59375 288.691406 195.460938 288.519531 195.289062 C 288.347656 195.117188 288.21875 194.917969 288.125 194.695312 C 288.03125 194.46875 287.984375 194.234375 287.984375 193.992188 C 287.984375 193.75 288.03125 193.515625 288.125 193.289062 C 288.21875 193.066406 288.347656 192.867188 288.519531 192.695312 C 288.691406 192.523438 288.890625 192.390625 289.117188 192.296875 C 289.339844 192.207031 289.574219 192.160156 289.816406 192.160156 C 290.0625 192.160156 290.292969 192.207031 290.519531 192.296875 C 290.742188 192.390625 290.941406 192.523438 291.113281 192.695312 C 291.285156 192.867188 291.417969 193.066406 291.511719 193.289062 C 291.605469 193.515625 291.652344 193.75 291.652344 193.992188 Z M 291.652344 193.992188 "/><path style=" stroke:none;fill-rule:nonzero;fill:#b29cd6;fill-opacity:1;" d="M 300.453125 193.992188 C 300.453125 194.234375 300.40625 194.46875 300.3125 194.695312 C 300.21875 194.917969 300.085938 195.117188 299.914062 195.289062 C 299.742188 195.460938 299.542969 195.59375 299.320312 195.6875 C 299.09375 195.777344 298.863281 195.824219 298.617188 195.824219 C 298.375 195.824219 298.140625 195.777344 297.917969 195.6875 C 297.691406 195.59375 297.492188 195.460938 297.320312 195.289062 C 297.148438 195.117188 297.015625 194.917969 296.925781 194.695312 C 296.832031 194.46875 296.785156 194.234375 296.785156 193.992188 C 296.785156 193.75 296.832031 193.515625 296.925781 193.289062 C 297.015625 193.066406 297.148438 192.867188 297.320312 192.695312 C 297.492188 192.523438 297.691406 192.390625 297.917969 192.296875 C 298.140625 192.207031 298.375 192.160156 298.617188 192.160156 C 298.863281 192.160156 299.09375 192.207031 299.320312 192.296875 C 299.542969 192.390625 299.742188 192.523438 299.914062 192.695312 C 300.085938 192.867188 300.21875 193.066406 300.3125 193.289062 C 300.40625 193.515625 300.453125 193.75 300.453125 193.992188 Z M 300.453125 193.992188 "/><path style=" stroke:none;fill-rule:nonzero;fill:#b29cd6;fill-opacity:1;" d="M 300.453125 221.125 C 300.453125 221.367188 300.40625 221.601562 300.3125 221.828125 C 300.21875 222.050781 300.085938 222.25 299.914062 222.421875 C 299.742188 222.59375 299.546875 222.726562 299.320312 222.820312 C 299.097656 222.910156 298.863281 222.957031 298.621094 222.957031 C 298.375 222.957031 298.140625 222.910156 297.917969 222.820312 C 297.691406 222.726562 297.496094 222.59375 297.324219 222.421875 C 297.152344 222.25 297.019531 222.050781 296.925781 221.828125 C 296.832031 221.601562 296.785156 221.367188 296.785156 221.125 C 296.785156 220.882812 296.832031 220.648438 296.925781 220.421875 C 297.019531 220.199219 297.152344 220 297.324219 219.828125 C 297.496094 219.65625 297.691406 219.523438 297.917969 219.429688 C 298.140625 219.339844 298.375 219.292969 298.621094 219.292969 C 298.863281 219.292969 299.097656 219.339844 299.320312 219.429688 C 299.546875 219.523438 299.742188 219.65625 299.914062 219.828125 C 300.085938 220 300.21875 220.199219 300.3125 220.421875 C 300.40625 220.648438 300.453125 220.882812 300.453125 221.125 Z M 300.453125 221.125 "/><path style=" stroke:none;fill-rule:nonzero;fill:#efcb96;fill-opacity:1;" d="M 93.40625 183.515625 L 91.882812 192.636719 C 92.390625 194.664062 94.851562 198.71875 100.636719 198.71875 C 106.421875 198.71875 108.375 195.171875 108.628906 193.398438 L 106.726562 186.175781 C 112.054688 185.035156 111.675781 173.632812 109.769531 168.308594 C 107.871094 161.847656 97.972656 159.949219 91.882812 167.550781 C 87.316406 174.011719 90.742188 181.359375 93.40625 183.515625 Z M 93.40625 183.515625 "/><path style=" stroke:none;fill-rule:nonzero;fill:#032068;fill-opacity:1;" d="M 94.550781 181.613281 L 92.96875 186.667969 C 92.835938 187.09375 92.265625 187.175781 92.003906 186.8125 C 80.035156 170.136719 85.105469 163.730469 89.222656 162.609375 C 90.746094 159.566406 95.3125 156.90625 102.921875 155.765625 C 110.535156 154.625 113.960938 159.949219 113.199219 165.648438 C 112.589844 170.210938 104.320312 170.335938 100.257812 169.832031 C 100.257812 171.351562 97.976562 179.332031 97.214844 178.574219 C 96.453125 177.8125 94.550781 173.25 93.027344 175.914062 C 91.808594 178.039062 93.535156 180.601562 94.550781 181.613281 Z M 94.550781 181.613281 "/><path style=" stroke:none;fill-rule:nonzero;fill:#032068;fill-opacity:1;" d="M 100.636719 186.175781 C 103.988281 186.785156 106.09375 186.429688 106.726562 186.175781 L 107.488281 188.835938 C 103.835938 189.140625 101.398438 187.1875 100.636719 186.175781 Z M 100.636719 186.175781 "/><path style=" stroke:none;fill-rule:nonzero;fill:#b29cd6;fill-opacity:1;" d="M 100.636719 196.4375 C 106.421875 196.4375 108.632812 193.398438 109.390625 191.875 C 113.578125 191.875 130.707031 195.675781 137.175781 208.601562 C 143.644531 221.523438 145.546875 250.410156 146.308594 254.972656 C 146.917969 258.621094 154.429688 278.539062 158.109375 288.042969 L 55.347656 288.042969 C 50.171875 288.042969 54.710938 259.660156 57.632812 245.46875 C 56.234375 239.640625 54.511719 224.867188 58.773438 212.402344 C 63.035156 199.933594 82.371094 193.523438 91.503906 191.875 C 91.882812 193.398438 94.851562 196.4375 100.636719 196.4375 Z M 100.636719 196.4375 "/><path style=" stroke:none;fill-rule:nonzero;fill:#032068;fill-opacity:1;" d="M 88.078125 250.03125 L 85.035156 234.828125 L 91.882812 248.890625 C 103.683594 247.75 113.832031 246.863281 117.003906 246.992188 C 114.265625 246.992188 92.265625 252.058594 81.609375 254.59375 Z M 88.078125 250.03125 "/><path style=" stroke:none;fill-rule:evenodd;fill:#032068;fill-opacity:1;" d="M 126.328125 202.851562 C 126.332031 202.550781 126.578125 202.3125 126.878906 202.3125 L 131.679688 202.367188 C 131.980469 202.371094 132.222656 202.617188 132.21875 202.917969 L 132.191406 205.1875 C 132.191406 205.492188 132.433594 205.738281 132.734375 205.742188 L 140.054688 205.824219 C 140.355469 205.824219 140.597656 206.074219 140.59375 206.375 L 140.550781 210.324219 C 140.546875 210.625 140.300781 210.867188 139.996094 210.863281 L 132.675781 210.785156 C 132.375 210.78125 132.128906 211.023438 132.125 211.324219 L 132.097656 213.59375 C 132.097656 213.894531 132.335938 214.140625 132.640625 214.144531 L 136.597656 214.1875 C 136.898438 214.191406 137.140625 214.441406 137.136719 214.742188 L 137.09375 218.691406 C 137.089844 218.992188 136.839844 219.234375 136.539062 219.230469 L 132.582031 219.1875 C 132.28125 219.183594 132.035156 219.425781 132.03125 219.726562 L 131.273438 287.550781 C 131.269531 287.851562 131.023438 288.09375 130.722656 288.089844 L 125.925781 288.035156 C 125.621094 288.03125 125.378906 287.785156 125.382812 287.484375 Z M 126.328125 202.851562 "/><path style=" stroke:none;fill-rule:nonzero;fill:#032068;fill-opacity:1;" d="M 57.628906 245.46875 C 59.152344 258.011719 67.527344 275.347656 76.660156 279.296875 C 88.796875 283.933594 112.992188 270.175781 120.34375 264.375 C 120.769531 264.015625 121.179688 263.667969 121.570312 263.335938 C 121.238281 263.640625 120.828125 263.988281 120.34375 264.375 C 111.003906 272.171875 92.6875 285.230469 77.039062 281.960938 C 64.480469 278.917969 57.375 260.800781 56.488281 251.171875 Z M 57.628906 245.46875 "/><path style=" stroke:none;fill-rule:nonzero;fill:#032068;fill-opacity:1;" d="M 88.460938 280.058594 C 80.847656 273.066406 71.078125 272.332031 67.144531 272.835938 C 68.289062 274.484375 71.714844 278.234375 76.28125 280.058594 C 80.847656 281.882812 86.300781 280.820312 88.460938 280.058594 Z M 88.460938 280.058594 "/><path style=" stroke:none;fill-rule:nonzero;fill:#efcb96;fill-opacity:1;" d="M 121.375 246.191406 C 121.375 247.34375 119.476562 249.070312 118.527344 249.789062 L 120.308594 259.152344 C 120.78125 258.914062 122.945312 257.929688 124.941406 257.351562 C 127.433594 256.632812 132.421875 256.632812 134.5625 254.472656 C 136.699219 252.3125 136.34375 243.667969 134.5625 241.867188 C 133.136719 240.429688 128.265625 242.949219 126.007812 244.390625 L 126.007812 238.628906 C 122.445312 240.070312 121.375 244.75 121.375 246.191406 Z M 121.375 246.191406 "/><path style=" stroke:none;fill-rule:nonzero;fill:#032068;fill-opacity:1;" d="M 135.273438 221.144531 C 136.1875 230.875 138.191406 269.796875 139.078125 288.042969 L 141.742188 288.042969 Z M 135.273438 221.144531 "/></g></svg>