<svg xmlns="http://www.w3.org/2000/svg" xmlns:xlink="http://www.w3.org/1999/xlink" width="500" zoomAndPan="magnify" viewBox="0 0 375 374.999991" height="500" preserveAspectRatio="xMidYMid meet" version="1.2"><defs><clipPath id="9610c67f13"><path d="M 69 70 L 308 70 L 308 291.230469 L 69 291.230469 Z M 69 70 "/></clipPath></defs><g id="ea2a831276"><g clip-rule="nonzero" clip-path="url(#9610c67f13)"><path style=" stroke:none;fill-rule:nonzero;fill:#e7e8ff;fill-opacity:1;" d="M 136.050781 291.183594 L 247.269531 291.183594 C 260.097656 291.183594 272.480469 286.496094 282.09375 278.003906 L 293.582031 267.851562 C 313.097656 250.605469 311.464844 219.667969 290.238281 204.570312 C 273.15625 192.421875 268.1875 169.226562 278.792969 151.140625 L 279.992188 149.09375 C 289.578125 132.746094 287.34375 112.050781 274.488281 98.125 L 258.988281 81.332031 C 243.660156 64.726562 216.832031 66.890625 204.363281 85.738281 C 194.882812 100.066406 176.371094 105.339844 160.765625 98.15625 L 153.988281 95.035156 C 134.519531 86.074219 111.425781 92.617188 99.554688 110.464844 L 91.941406 121.90625 C 84.410156 133.226562 83.488281 147.703125 89.523438 159.886719 C 96.460938 173.894531 94.128906 190.71875 83.648438 202.3125 L 80.59375 205.691406 C 61.515625 226.792969 66.707031 260.109375 91.296875 274.402344 L 106.445312 283.207031 C 115.4375 288.433594 125.652344 291.183594 136.050781 291.183594 Z M 136.050781 291.183594 "/></g><path style=" stroke:none;fill-rule:nonzero;fill:#032068;fill-opacity:1;" d="M 300.613281 258.671875 C 300.800781 272.9375 291.089844 284.988281 286.160156 289.207031 L 278.601562 289.207031 C 284.21875 270.167969 293.507812 260.703125 298.714844 257.550781 C 299.578125 257.027344 300.597656 257.65625 300.613281 258.671875 Z M 300.613281 258.671875 "/><path style=" stroke:none;fill-rule:nonzero;fill:#ffffff;fill-opacity:1;" d="M 301.410156 211.855469 C 309.152344 241.03125 289.636719 275.585938 281.246094 288.449219 L 264.242188 288.449219 C 271.546875 233.398438 283.789062 220.019531 299.269531 210.980469 C 300.101562 210.496094 301.164062 210.921875 301.410156 211.855469 Z M 301.410156 211.855469 "/><path style=" stroke:none;fill-rule:evenodd;fill:#032068;fill-opacity:1;" d="M 299.652344 211.632812 C 300.0625 211.394531 300.5625 211.609375 300.679688 212.050781 C 304.496094 226.421875 301.605469 242.183594 296.667969 256.015625 C 291.820312 269.589844 285.035156 281.214844 280.835938 287.691406 L 265.105469 287.691406 C 268.738281 260.703125 273.570312 243.933594 279.359375 232.8125 C 285.1875 221.609375 292.003906 216.101562 299.652344 211.632812 Z M 302.140625 211.660156 C 301.761719 210.234375 300.144531 209.59375 298.890625 210.324219 C 291.058594 214.898438 284.011719 220.601562 278.019531 232.109375 C 272.050781 243.582031 267.148438 260.789062 263.492188 288.347656 L 263.378906 289.207031 L 281.65625 289.207031 L 281.878906 288.863281 C 286.09375 282.402344 293.101562 270.492188 298.089844 256.523438 C 303.074219 242.566406 306.070312 226.460938 302.140625 211.660156 Z M 302.140625 211.660156 "/><path style=" stroke:none;fill-rule:nonzero;fill:#032068;fill-opacity:1;" d="M 273.992188 229.804688 C 280.679688 254.253906 273.027344 279.664062 268.019531 289.207031 L 255.550781 289.207031 C 252.746094 259.40625 264.144531 237.738281 271.640625 229.21875 C 272.382812 228.378906 273.699219 228.722656 273.992188 229.804688 Z M 273.992188 229.804688 "/><path style=" stroke:none;fill-rule:evenodd;fill:#032068;fill-opacity:1;" d="M 290.824219 232.613281 L 294.890625 221.160156 L 296.316406 221.667969 L 287 247.90625 L 293.121094 246.0625 L 293.554688 247.515625 L 286.371094 249.675781 L 277.894531 273.539062 L 285.523438 270.695312 L 286.050781 272.117188 L 277.234375 275.402344 L 272.511719 288.703125 L 271.085938 288.195312 L 280.679688 261.179688 L 277.132812 251.210938 L 278.554688 250.699219 L 281.480469 258.921875 L 289.96875 235.027344 L 287.324219 226.175781 L 288.769531 225.742188 Z M 290.824219 232.613281 "/><path style=" stroke:none;fill-rule:evenodd;fill:#ffffff;fill-opacity:1;" d="M 267.617188 249.328125 L 269.542969 238.699219 L 271.03125 238.972656 L 267.117188 260.542969 L 272.203125 257.859375 L 272.90625 259.199219 L 266.773438 262.4375 L 263.417969 280.9375 L 267.621094 277.628906 L 268.554688 278.816406 L 263.011719 283.1875 L 261.960938 288.960938 L 260.476562 288.691406 L 263.164062 273.871094 L 258.730469 268.078125 L 259.929688 267.15625 L 263.527344 271.859375 L 267.277344 251.191406 L 263.6875 247.304688 L 264.796875 246.273438 Z M 267.617188 249.328125 "/><path style=" stroke:none;fill-rule:nonzero;fill:#ffffff;fill-opacity:1;" d="M 134.203125 110.210938 L 137.109375 110.914062 C 137.625 111.042969 137.679688 111.757812 137.183594 111.957031 L 134.476562 113.050781 C 134.3125 113.113281 134.191406 113.257812 134.148438 113.429688 L 133.394531 116.535156 C 133.273438 117.035156 132.59375 117.105469 132.371094 116.644531 L 130.96875 113.730469 C 130.902344 113.589844 130.773438 113.484375 130.625 113.441406 L 127.207031 112.476562 C 126.703125 112.332031 126.667969 111.625 127.160156 111.4375 L 130.269531 110.246094 C 130.421875 110.1875 130.539062 110.066406 130.589844 109.914062 L 131.769531 106.492188 C 131.941406 105.988281 132.660156 106.003906 132.8125 106.511719 L 133.804688 109.835938 C 133.863281 110.023438 134.011719 110.164062 134.203125 110.210938 Z M 134.203125 110.210938 "/><path style=" stroke:none;fill-rule:nonzero;fill:#ffffff;fill-opacity:1;" d="M 110.964844 138.890625 L 111.714844 139.5 C 112.128906 139.835938 111.871094 140.503906 111.339844 140.472656 L 110.402344 140.414062 C 110.226562 140.40625 110.054688 140.480469 109.945312 140.617188 L 109.207031 141.527344 C 108.882812 141.925781 108.234375 141.699219 108.234375 141.183594 L 108.226562 139.976562 C 108.226562 139.820312 108.160156 139.671875 108.039062 139.566406 L 107.027344 138.679688 C 106.628906 138.332031 106.902344 137.679688 107.429688 137.722656 L 108.640625 137.816406 C 108.800781 137.828125 108.960938 137.769531 109.074219 137.652344 L 110.027344 136.679688 C 110.402344 136.296875 111.042969 136.617188 110.960938 137.144531 L 110.769531 138.382812 C 110.742188 138.574219 110.816406 138.769531 110.964844 138.890625 Z M 110.964844 138.890625 "/><path style=" stroke:none;fill-rule:nonzero;fill:#b29cd6;fill-opacity:1;" d="M 292.355469 183.339844 L 290.175781 186.296875 C 290.046875 186.476562 289.828125 186.5625 289.617188 186.519531 L 286.925781 185.984375 C 286.347656 185.871094 286 186.640625 286.445312 187.046875 L 288.558594 188.972656 C 288.714844 189.113281 288.789062 189.328125 288.753906 189.542969 L 288.222656 192.714844 C 288.121094 193.3125 288.816406 193.683594 289.207031 193.242188 L 291.378906 190.800781 C 291.507812 190.660156 291.691406 190.589844 291.875 190.617188 L 294.390625 190.980469 C 294.957031 191.0625 295.277344 190.3125 294.847656 189.914062 L 292.976562 188.1875 C 292.828125 188.046875 292.753906 187.835938 292.789062 187.628906 L 293.375 183.816406 C 293.472656 183.191406 292.722656 182.84375 292.355469 183.339844 Z M 292.355469 183.339844 "/><path style=" stroke:none;fill-rule:nonzero;fill:#ffffff;fill-opacity:1;" d="M 160.753906 105.113281 C 160.753906 100.738281 164.300781 97.195312 168.671875 97.195312 L 258.757812 97.195312 C 263.132812 97.195312 266.675781 100.738281 266.675781 105.113281 L 266.675781 281.261719 C 266.675781 285.632812 263.132812 289.179688 258.757812 289.179688 L 168.671875 289.179688 C 164.300781 289.179688 160.753906 285.632812 160.753906 281.261719 Z M 160.753906 105.113281 "/><path style=" stroke:none;fill-rule:evenodd;fill:#032068;fill-opacity:1;" d="M 160.09375 105.113281 C 160.09375 100.375 163.933594 96.535156 168.671875 96.535156 L 258.757812 96.535156 C 263.496094 96.535156 267.335938 100.375 267.335938 105.113281 L 267.335938 281.261719 C 267.335938 286 263.496094 289.839844 258.757812 289.839844 L 168.671875 289.839844 C 163.933594 289.839844 160.09375 286 160.09375 281.261719 Z M 168.671875 97.855469 C 164.664062 97.855469 161.414062 101.101562 161.414062 105.113281 L 161.414062 281.261719 C 161.414062 285.269531 164.664062 288.519531 168.671875 288.519531 L 258.757812 288.519531 C 262.769531 288.519531 266.019531 285.269531 266.019531 281.261719 L 266.019531 105.113281 C 266.019531 101.101562 262.769531 97.855469 258.757812 97.855469 Z M 168.671875 97.855469 "/><path style=" stroke:none;fill-rule:nonzero;fill:#e7e8ff;fill-opacity:1;" d="M 244.558594 167.789062 C 244.558594 184.917969 230.671875 198.804688 213.542969 198.804688 C 196.414062 198.804688 182.53125 184.917969 182.53125 167.789062 C 182.53125 150.660156 196.414062 136.773438 213.542969 136.773438 C 230.671875 136.773438 244.558594 150.660156 244.558594 167.789062 Z M 244.558594 167.789062 "/><path style=" stroke:none;fill-rule:nonzero;fill:#032068;fill-opacity:1;" d="M 192.65625 103.628906 L 189.222656 97.195312 L 238.210938 97.195312 L 234.175781 103.921875 C 232.984375 105.90625 230.835938 107.125 228.515625 107.125 L 198.476562 107.125 C 196.039062 107.125 193.800781 105.78125 192.65625 103.628906 Z M 192.65625 103.628906 "/><path style=" stroke:none;fill-rule:nonzero;fill:#032068;fill-opacity:1;" d="M 265.378906 101.164062 L 161.378906 101.164062 C 164.820312 97.722656 168.109375 97.082031 169.320312 97.195312 L 257.433594 97.195312 C 261.671875 97.195312 264.496094 99.839844 265.378906 101.164062 Z M 265.378906 101.164062 "/><path style=" stroke:none;fill-rule:nonzero;fill:#032068;fill-opacity:1;" d="M 265.296875 285.414062 L 162.074219 285.414062 C 165.652344 288.914062 167.71875 289.5625 168.980469 289.453125 L 258.390625 289.453125 C 262.796875 289.453125 264.382812 286.761719 265.296875 285.414062 Z M 265.296875 285.414062 "/><path style=" stroke:none;fill-rule:nonzero;fill:#b29cd6;fill-opacity:1;" d="M 175.929688 122.257812 C 175.929688 121.527344 176.523438 120.9375 177.25 120.9375 L 212.390625 120.9375 C 213.121094 120.9375 213.710938 121.527344 213.710938 122.257812 L 213.710938 123.664062 C 213.710938 124.394531 213.121094 124.984375 212.390625 124.984375 L 177.25 124.984375 C 176.523438 124.984375 175.929688 124.394531 175.929688 123.664062 Z M 175.929688 122.257812 "/><path style=" stroke:none;fill-rule:nonzero;fill:#032068;fill-opacity:1;" d="M 175.929688 211.339844 C 175.929688 210.613281 176.523438 210.019531 177.25 210.019531 L 212.390625 210.019531 C 213.121094 210.019531 213.710938 210.613281 213.710938 211.339844 L 213.710938 212.75 C 213.710938 213.476562 213.121094 214.070312 212.390625 214.070312 L 177.25 214.070312 C 176.523438 214.070312 175.929688 213.476562 175.929688 212.75 Z M 175.929688 211.339844 "/><path style=" stroke:none;fill-rule:nonzero;fill:#032068;fill-opacity:1;" d="M 175.929688 246.3125 C 175.929688 245.585938 176.523438 244.992188 177.25 244.992188 L 198.367188 244.992188 C 199.09375 244.992188 199.6875 245.585938 199.6875 246.3125 L 199.6875 247.632812 C 199.6875 248.363281 199.09375 248.953125 198.367188 248.953125 L 177.25 248.953125 C 176.523438 248.953125 175.929688 248.363281 175.929688 247.632812 Z M 175.929688 246.3125 "/><path style=" stroke:none;fill-rule:nonzero;fill:#e7e8ff;fill-opacity:1;" d="M 175.929688 221.238281 C 175.929688 220.507812 176.523438 219.917969 177.25 219.917969 L 247.855469 219.917969 C 248.585938 219.917969 249.175781 220.507812 249.175781 221.238281 L 249.175781 234.4375 C 249.175781 235.164062 248.585938 235.757812 247.855469 235.757812 L 177.25 235.757812 C 176.523438 235.757812 175.929688 235.164062 175.929688 234.4375 Z M 175.929688 221.238281 "/><path style=" stroke:none;fill-rule:nonzero;fill:#e7e8ff;fill-opacity:1;" d="M 175.929688 255.550781 C 175.929688 254.824219 176.523438 254.230469 177.25 254.230469 L 247.855469 254.230469 C 248.585938 254.230469 249.175781 254.824219 249.175781 255.550781 L 249.175781 268.75 C 249.175781 269.480469 248.585938 270.070312 247.855469 270.070312 L 177.25 270.070312 C 176.523438 270.070312 175.929688 269.480469 175.929688 268.75 Z M 175.929688 255.550781 "/><path style=" stroke:none;fill-rule:evenodd;fill:#032068;fill-opacity:1;" d="M 257.921875 106.628906 L 259.242188 106.628906 L 259.242188 112.023438 L 257.921875 112.023438 Z M 257.921875 106.628906 "/><path style=" stroke:none;fill-rule:evenodd;fill:#032068;fill-opacity:1;" d="M 254.546875 107.300781 L 255.867188 107.300781 L 255.867188 112.023438 L 254.546875 112.023438 Z M 254.546875 107.300781 "/><path style=" stroke:none;fill-rule:evenodd;fill:#032068;fill-opacity:1;" d="M 251.175781 108.652344 L 252.496094 108.652344 L 252.496094 112.023438 L 251.175781 112.023438 Z M 251.175781 108.652344 "/><path style=" stroke:none;fill-rule:evenodd;fill:#032068;fill-opacity:1;" d="M 247.800781 110 L 249.121094 110 L 249.121094 112.023438 L 247.800781 112.023438 Z M 247.800781 110 "/><path style=" stroke:none;fill-rule:nonzero;fill:#ffffff;fill-opacity:1;" d="M 213.839844 168.164062 C 205.113281 168.164062 197.917969 174.839844 196.953125 183.4375 C 196.832031 184.523438 197.730469 185.414062 198.824219 185.414062 L 228.859375 185.414062 C 229.953125 185.414062 230.851562 184.523438 230.730469 183.4375 C 229.761719 174.839844 222.570312 168.164062 213.839844 168.164062 Z M 213.839844 168.164062 "/><path style=" stroke:none;fill-rule:nonzero;fill:#ffffff;fill-opacity:1;" d="M 222.210938 158.015625 C 222.210938 162.5 218.578125 166.132812 214.09375 166.132812 C 209.609375 166.132812 205.976562 162.5 205.976562 158.015625 C 205.976562 153.53125 209.609375 149.894531 214.09375 149.894531 C 218.578125 149.894531 222.210938 153.53125 222.210938 158.015625 Z M 222.210938 158.015625 "/><path style=" stroke:none;fill-rule:nonzero;fill:#efcb96;fill-opacity:1;" d="M 144.972656 184.308594 L 147.65625 192.605469 C 148.726562 196.5 144.972656 200.605469 136.039062 200.605469 C 128.886719 200.605469 127.460938 196.523438 127.816406 193.214844 L 129.960938 181.832031 C 128.171875 180.058594 126.742188 178.996094 126.742188 170.496094 C 126.742188 159.867188 132.460938 155.972656 139.253906 155.972656 C 146.046875 155.972656 151.765625 161.632812 151.765625 171.910156 C 151.765625 180.769531 147 183.601562 144.972656 184.308594 Z M 144.972656 184.308594 "/><path style=" stroke:none;fill-rule:nonzero;fill:#032068;fill-opacity:1;" d="M 161.9375 176.542969 C 167.253906 182.089844 166.542969 195.746094 165.726562 199.90625 C 157.113281 193.515625 151.28125 191.402344 148.265625 191.160156 C 147.777344 191.121094 147.691406 192.25 147.351562 192.296875 L 144.789062 183.820312 C 148.640625 182.78125 151.089844 179.316406 151.4375 171.339844 C 151.71875 164.960938 148.523438 160.59375 146.890625 159.207031 C 141.289062 158.859375 138.492188 165.792969 136.742188 168.566406 C 135.34375 170.785156 134.292969 170.417969 133.941406 169.953125 C 132.191406 165.792969 129.042969 165.449219 128.34375 169.953125 C 127.785156 173.558594 130.441406 175.386719 131.84375 175.847656 L 127.816406 193.523438 C 127.347656 193.550781 126.902344 191.992188 126.902344 191.296875 C 119.421875 192.128906 111.207031 196.082031 108.757812 197.722656 C 107.707031 186.628906 117.84375 178.273438 120.644531 171.339844 C 123.445312 164.40625 119.597656 160.941406 122.394531 156.433594 C 124.46875 153.09375 128.34375 152.621094 130.792969 151.925781 C 133.242188 151.234375 134.640625 148.460938 137.441406 147.074219 C 142.339844 145.339844 147.007812 149.617188 148.289062 152.621094 C 149.105469 152.503906 151.4375 152.828125 154.238281 155.046875 C 162.285156 160.59375 155.289062 169.609375 161.9375 176.542969 Z M 161.9375 176.542969 "/><path style=" stroke:none;fill-rule:nonzero;fill:#032068;fill-opacity:1;" d="M 137.863281 183.867188 C 142.035156 184.84375 144.46875 184.476562 145.164062 184.171875 L 146.207031 187.53125 C 141.757812 188.019531 138.792969 185.292969 137.863281 183.867188 Z M 137.863281 183.867188 "/><path style=" stroke:none;fill-rule:nonzero;fill:#b29cd6;fill-opacity:1;" d="M 136.929688 197.394531 C 143.949219 197.394531 147.242188 193.070312 148.011719 190.910156 C 161.402344 190.910156 172.488281 200.175781 177.566406 206.664062 C 182.648438 213.148438 201.578125 247.4375 196.960938 261.335938 C 193.265625 272.457031 184.339844 274.15625 179.414062 273.382812 L 180.230469 288.121094 C 180.289062 289.175781 179.453125 290.0625 178.402344 290.0625 L 110.609375 290.0625 C 103.527344 290.523438 88.074219 290.710938 82.902344 287.746094 C 76.433594 284.039062 70.433594 265.042969 82.902344 227.511719 C 92.875 197.488281 116.304688 190.601562 126.769531 190.910156 C 127.230469 193.070312 129.910156 197.394531 136.929688 197.394531 Z M 136.929688 197.394531 "/><path style=" stroke:none;fill-rule:nonzero;fill:#032068;fill-opacity:1;" d="M 103.300781 290.089844 C 92.167969 276.476562 80.398438 271.617188 75.902344 270.890625 C 75.902344 275.253906 78.078125 283.542969 81.992188 287.472656 C 85.125 290.613281 97.503906 290.527344 103.300781 290.089844 Z M 103.300781 290.089844 "/><path style=" stroke:none;fill-rule:nonzero;fill:#032068;fill-opacity:1;" d="M 189.40625 271.765625 C 196.710938 268.972656 197.960938 258.964844 197.667969 254.3125 C 191.058594 257.453125 182.160156 268.128906 178.535156 273.074219 C 179.113281 273.800781 182.101562 274.554688 189.40625 271.765625 Z M 189.40625 271.765625 "/><path style=" stroke:none;fill-rule:nonzero;fill:#032068;fill-opacity:1;" d="M 136.007812 240.023438 C 132.773438 241.414062 108.761719 252.6875 97.679688 258.09375 C 99.0625 255.777344 104.605469 252.070312 105.992188 250.679688 C 107.375 249.289062 112.457031 233.074219 112.457031 235.390625 C 112.457031 237.707031 109.683594 248.363281 111.070312 248.363281 C 112.457031 248.363281 131.851562 240.023438 136.007812 240.023438 Z M 136.007812 240.023438 "/><path style=" stroke:none;fill-rule:nonzero;fill:#032068;fill-opacity:1;" d="M 145.703125 253.460938 C 126.125 279.777344 110.144531 289.136719 104.605469 290.527344 L 114.300781 290.527344 C 130.925781 277.550781 142.164062 260.410156 145.703125 253.460938 Z M 145.703125 253.460938 "/><path style=" stroke:none;fill-rule:nonzero;fill:#032068;fill-opacity:1;" d="M 169.714844 248.828125 C 170.457031 257.722656 176.796875 268.902344 179.875 273.382812 L 179.875 277.550781 C 172.855469 269.769531 170.179688 255.160156 169.714844 248.828125 Z M 169.714844 248.828125 "/><path style=" stroke:none;fill-rule:nonzero;fill:#032068;fill-opacity:1;" d="M 178.492188 236.316406 C 181.078125 237.800781 185.726562 241.257812 187.726562 242.804688 L 180.335938 234 C 179.96875 235.484375 178.953125 236.160156 178.492188 236.316406 Z M 178.492188 236.316406 "/><path style=" stroke:none;fill-rule:nonzero;fill:#ffffff;fill-opacity:1;" d="M 151.191406 219.222656 L 147.632812 254.039062 C 147.59375 254.445312 147.949219 254.777344 148.347656 254.707031 L 165.128906 251.683594 C 165.386719 251.636719 165.585938 251.429688 165.625 251.171875 L 170.527344 218.074219 C 170.585938 217.6875 170.269531 217.347656 169.882812 217.375 L 151.757812 218.671875 C 151.460938 218.695312 151.222656 218.925781 151.191406 219.222656 Z M 151.191406 219.222656 "/><path style=" stroke:none;fill-rule:evenodd;fill:#032068;fill-opacity:1;" d="M 169.835938 216.761719 C 170.617188 216.707031 171.246094 217.390625 171.132812 218.164062 L 166.226562 251.261719 C 166.152344 251.78125 165.753906 252.195312 165.238281 252.285156 L 148.457031 255.308594 C 147.65625 255.453125 146.941406 254.789062 147.027344 253.976562 L 150.585938 219.160156 C 150.644531 218.566406 151.121094 218.105469 151.714844 218.0625 Z M 169.925781 217.984375 L 151.800781 219.285156 L 148.238281 254.101562 L 165.019531 251.082031 Z M 169.925781 217.984375 "/><path style=" stroke:none;fill-rule:nonzero;fill:#efcb96;fill-opacity:1;" d="M 175.257812 236.316406 L 169.71875 244.65625 C 162.328125 245.121094 160.941406 240.949219 162.328125 234.464844 C 163.4375 229.273438 167.5625 229.210938 169.253906 229.828125 L 170.179688 226.125 C 175.257812 230.292969 175.257812 234.308594 175.257812 236.316406 Z M 175.257812 236.316406 "/><path style=" stroke:none;fill-rule:nonzero;fill:#efcb96;fill-opacity:1;" d="M 142.933594 235.390625 C 141.824219 238.355469 139.699219 240.332031 138.777344 240.949219 L 144.78125 250.214844 C 146.628906 248.363281 148.9375 248.363281 154.015625 246.046875 C 159.09375 243.730469 160.480469 235.390625 159.09375 230.757812 C 157.988281 227.050781 151.554688 229.828125 148.9375 231.683594 L 149.398438 226.585938 C 146.164062 227.976562 144.316406 231.683594 142.933594 235.390625 Z M 142.933594 235.390625 "/><path style=" stroke:none;fill-rule:nonzero;fill:#ffffff;fill-opacity:1;" d="M 303.945312 148.652344 C 303.945312 161.042969 293.902344 171.085938 281.511719 171.085938 C 269.121094 171.085938 259.074219 161.042969 259.074219 148.652344 C 259.074219 136.261719 269.121094 126.214844 281.511719 126.214844 C 293.902344 126.214844 303.945312 136.261719 303.945312 148.652344 Z M 303.945312 148.652344 "/><path style=" stroke:none;fill-rule:evenodd;fill:#032068;fill-opacity:1;" d="M 281.511719 126.769531 C 269.425781 126.769531 259.625 136.566406 259.625 148.652344 C 259.625 160.738281 269.425781 170.535156 281.511719 170.535156 C 293.597656 170.535156 303.394531 160.738281 303.394531 148.652344 C 303.394531 136.566406 293.597656 126.769531 281.511719 126.769531 Z M 258.523438 148.652344 C 258.523438 135.957031 268.816406 125.664062 281.511719 125.664062 C 294.207031 125.664062 304.5 135.957031 304.5 148.652344 C 304.5 161.347656 294.207031 171.640625 281.511719 171.640625 C 268.816406 171.640625 258.523438 161.347656 258.523438 148.652344 Z M 258.523438 148.652344 "/><path style=" stroke:none;fill-rule:evenodd;fill:#032068;fill-opacity:1;" d="M 281.777344 134.761719 C 277.5 134.761719 274.03125 138.289062 274.03125 142.636719 L 274.03125 148.027344 C 274.03125 148.667969 274.550781 149.1875 275.1875 149.1875 C 275.828125 149.1875 276.347656 148.667969 276.347656 148.027344 L 276.347656 142.488281 C 276.347656 139.441406 278.777344 136.972656 281.777344 136.972656 C 284.773438 136.972656 287.207031 139.441406 287.207031 142.488281 L 287.207031 147.738281 C 287.207031 148.378906 287.722656 148.898438 288.363281 148.898438 C 289.003906 148.898438 289.523438 148.378906 289.523438 147.738281 L 289.523438 142.636719 C 289.523438 138.289062 286.054688 134.761719 281.777344 134.761719 Z M 281.777344 134.761719 "/><path style=" stroke:none;fill-rule:nonzero;fill:#b29cd6;fill-opacity:1;" d="M 271.894531 148.171875 C 271.894531 147.257812 272.632812 146.515625 273.546875 146.515625 L 290.003906 146.515625 C 290.917969 146.515625 291.660156 147.257812 291.660156 148.171875 L 291.660156 160.351562 C 291.660156 161.265625 290.917969 162.007812 290.003906 162.007812 L 273.546875 162.007812 C 272.632812 162.007812 271.894531 161.265625 271.894531 160.351562 Z M 271.894531 148.171875 "/><path style=" stroke:none;fill-rule:evenodd;fill:#ffffff;fill-opacity:1;" d="M 283.035156 154.902344 C 283.492188 154.535156 283.785156 153.96875 283.785156 153.335938 C 283.785156 152.222656 282.886719 151.324219 281.777344 151.324219 C 280.664062 151.324219 279.765625 152.222656 279.765625 153.335938 C 279.765625 154.023438 280.113281 154.632812 280.640625 154.996094 L 280.191406 156.882812 C 280.125 157.160156 280.339844 157.429688 280.628906 157.429688 L 283.074219 157.429688 C 283.359375 157.429688 283.574219 157.160156 283.507812 156.882812 Z M 283.035156 154.902344 "/></g></svg>